HIERARCHY
ROOT Hips
{
    OFFSET 0.000000 0.000000 0.000000
    CHANNELS 6 Xposition Yposition Zposition Zrotation Xrotation Yrotation
    JOINT Spine
    {
        OFFSET -0.000000 14.517291 0.000000
        CHANNELS 3 Zrotation Xrotation Yrotation
        JOINT Spine1
        {
            OFFSET -0.000000 37.558300 0.000000
            CHANNELS 3 Zrotation Xrotation Yrotation
            JOINT Neck
            {
                OFFSET -0.000000 37.404057 3.400369
                CHANNELS 3 Zrotation Xrotation Yrotation
                JOINT Head
                {
                    OFFSET -0.000000 24.785618 -3.540803
                    CHANNELS 3 Zrotation Xrotation Yrotation
                    End Site
                    {
                        OFFSET -0.000000 35.408028 0.000000
                    }
                }
            }
            JOINT LeftShoulder
            {
                OFFSET 6.992933 33.973492 -0.192664
                CHANNELS 3 Zrotation Xrotation Yrotation
                JOINT LeftArm
                {
                    OFFSET 21.527611 0.000000 0.000000
                    CHANNELS 3 Zrotation Xrotation Yrotation
                    JOINT LeftForeArm
                    {
                        OFFSET 56.353916 0.000000 0.000000
                        CHANNELS 3 Zrotation Xrotation Yrotation
                        JOINT LeftHand
                        {
                            OFFSET 47.774071 0.000000 0.000000
                            CHANNELS 3 Zrotation Xrotation Yrotation
                            End Site
                            {
                                OFFSET 26.556021 0.000000 0.000000
                            }
                        }
                    }
                }
            }
            JOINT RightShoulder
            {
                OFFSET -7.065357 33.973492 -0.192664
                CHANNELS 3 Zrotation Xrotation Yrotation
                JOINT RightArm
                {
                    OFFSET -21.527611 0.000000 0.000000
                    CHANNELS 3 Zrotation Xrotation Yrotation
                    JOINT RightForeArm
                    {
                        OFFSET -56.353916 0.000000 0.000000
                        CHANNELS 3 Zrotation Xrotation Yrotation
                        JOINT RightHand
                        {
                            OFFSET -47.774071 0.000000 0.000000
                            CHANNELS 3 Zrotation Xrotation Yrotation
                            End Site
                            {
                                OFFSET -26.556021 0.000000 0.000000
                            }
                        }
                    }
                }
            }
        }
    }
    JOINT LeftUpLeg
    {
        OFFSET 17.704014 0.000000 0.000000
        CHANNELS 3 Zrotation Xrotation Yrotation
        JOINT LeftLeg
        {
            OFFSET -0.000000 -81.181816 0.000000
            CHANNELS 3 Zrotation Xrotation Yrotation
            JOINT LeftFoot
            {
                OFFSET -0.000000 -62.821102 0.000000
                CHANNELS 3 Zrotation Xrotation Yrotation
                JOINT LeftToeBase
                {
                    OFFSET -0.000000 -11.507608 26.556021
                    CHANNELS 3 Zrotation Xrotation Yrotation
                    End Site
                    {
                        OFFSET -0.000000 0.000000 7.081605
                    }
                }
            }
        }
    }
    JOINT RightUpLeg
    {
        OFFSET -17.704014 0.000000 0.000000
        CHANNELS 3 Zrotation Xrotation Yrotation
        JOINT RightLeg
        {
            OFFSET -0.000000 -81.181816 0.000000
            CHANNELS 3 Zrotation Xrotation Yrotation
            JOINT RightFoot
            {
                OFFSET -0.000000 -62.821102 0.000000
                CHANNELS 3 Zrotation Xrotation Yrotation
                JOINT RightToeBase
                {
                    OFFSET -0.000000 -11.507608 26.556021
                    CHANNELS 3 Zrotation Xrotation Yrotation
                    End Site
                    {
                        OFFSET -0.000000 0.000000 7.081605
                    }
                }
            }
        }
    }
}
MOTION
Frames:    6
Frame Time:    0.008333
-31.241013    151.052231    -33.757217    0.233140    3.622665    27.109035    -3.924837    3.781197    9.652761    -2.361347    -2.124118    3.131489    -4.430888    5.813360    -15.565928    15.764364    -8.735801    -12.399557    1.304552    3.761537    -7.572415    -34.607300    13.201769    -60.218735    -5.608599    -28.046431    -125.552284    -7.074397    -36.577625    -13.404859    0.011156    12.269897    0.135508    43.335041    14.947346    50.896915    -54.188694    -41.275600    29.943949    26.103304    -20.963804    34.126701    -3.806259    -35.875984    -29.998920    -10.933990    22.574852    -25.105646    -10.822379    2.448357    30.453678    0.000000    0.000000    0.000000    5.161300    9.268404    -22.663464    2.068012    23.283768    -3.380016    -0.301003    -30.840929    -9.243992    0.000000    0.000000    0.000000    
-31.258768    151.051910    -33.748924    0.237911    3.618933    27.106501    -3.929197    3.793477    9.678905    -2.359545    -2.139313    3.139728    -4.434219    5.828863    -15.573081    15.783083    -8.762596    -12.399731    1.302119    3.763411    -7.567066    -34.603542    13.214008    -60.210876    -5.615166    -28.031162    -125.561661    -7.065205    -36.576675    -13.401971    0.020792    12.284081    0.127389    43.297802    14.953601    50.951988    -54.449612    -41.216007    29.515301    26.055569    -21.028051    34.197792    -3.800026    -35.870083    -30.010113    -10.943684    22.572554    -25.084743    -10.808688    2.449064    30.451448    0.000000    0.000000    0.000000    5.169145    9.262755    -22.665018    2.041605    23.301317    -3.351953    -0.285526    -30.834934    -9.254389    0.000000    0.000000    0.000000    
-31.275917    151.050674    -33.748745    0.243483    3.623342    27.101397    -3.937847    3.802791    9.698390    -2.358169    -2.153531    3.145764    -4.418808    5.827249    -15.582977    15.769939    -8.776489    -12.412515    1.304076    3.760051    -7.559320    -34.606792    13.224403    -60.201420    -5.636268    -28.002337    -125.586372    -7.003037    -36.597134    -13.348540    0.032062    12.279731    0.133646    43.285725    14.987976    50.963409    -54.713799    -41.167885    29.136318    26.007643    -21.079678    34.276516    -3.802616    -35.874695    -30.007500    -10.930778    22.578293    -25.102551    -10.811449    2.448053    30.454359    0.000000    0.000000    0.000000    5.168663    9.252265    -22.675365    2.038759    23.314415    -3.330469    -0.313295    -30.844414    -9.290885    0.000000    0.000000    0.000000    
-31.293577    151.051224    -33.746128    0.247745    3.621029    27.095554    -3.942535    3.815934    9.714011    -2.350750    -2.165600    3.150667    -4.423912    5.835024    -15.586129    15.773816    -8.803489    -12.411168    1.298371    3.759252    -7.554341    -34.605263    13.233072    -60.191410    -5.645427    -28.001095    -125.598526    -6.993736    -36.613888    -13.343714    0.032091    12.294226    0.138952    43.244022    14.992214    51.016102    -55.042194    -41.037930    28.669920    26.110044    -21.022018    34.313526    -3.795850    -35.872967    -30.016565    -10.934791    22.576387    -25.099699    -10.823863    2.447095    30.465895    0.000000    0.000000    0.000000    5.173246    9.247488    -22.681795    2.021252    23.324965    -3.355155    -0.281644    -30.841007    -9.239453    0.000000    0.000000    0.000000    
-31.306448    151.050507    -33.745125    0.250618    3.619588    27.088963    -3.932250    3.826920    9.728531    -2.372927    -2.170377    3.154986    -4.399293    5.830651    -15.588056    15.762508    -8.823658    -12.415146    1.321009    3.751239    -7.548641    -34.626713    13.236275    -60.182713    -5.654574    -27.978771    -125.598663    -7.022580    -36.603798    -13.377815    0.059714    12.284193    0.142398    43.224636    15.022394    51.027531    -55.317760    -40.965935    28.285213    26.047764    -21.057636    34.368439    -3.791049    -35.870930    -30.015711    -10.938474    22.573889    -25.083826    -10.816813    2.454201    30.471228    0.000000    0.000000    0.000000    5.170050    9.244430    -22.678150    2.029244    23.335098    -3.394146    -0.277774    -30.842094    -9.184097    0.000000    0.000000    0.000000    
-31.327326    151.053284    -33.747192    0.247602    3.622185    27.085241    -3.932165    3.834623    9.735249    -2.370816    -2.179744    3.156998    -4.413363    5.834548    -15.595133    15.790308    -8.832708    -12.414135    1.327612    3.749665    -7.543828    -34.619209    13.241241    -60.183434    -5.661204    -27.991858    -125.603912    -6.989201    -36.632038    -13.342650    0.067415    12.291684    0.148758    43.162853    15.034021    51.082977    -55.549183    -40.889393    27.886026    25.974785    -21.105114    34.460258    -3.784552    -35.881279    -30.024565    -10.934286    22.579645    -25.096096    -10.833636    2.453913    30.481884    0.000000    0.000000    0.000000    5.178150    9.230910    -22.695253    2.019104    23.342785    -3.373915    -0.282828    -30.838959    -9.202724    0.000000    0.000000    0.000000    
